# Blender v2.92.0 OBJ File: 'pikachu.blend'
# www.blender.org
mtllib pikachu.mtl
o Plane.001_Plane.004
v -0.665709 1.451243 -0.000283
v -0.688918 1.207852 -0.000427
v -0.722849 1.038253 -0.000636
v -0.748723 1.141156 -0.000796
v -0.544904 0.885691 0.000463
v -0.478958 1.603433 0.000871
v -0.312922 1.658875 0.001897
v -0.172637 1.639885 0.002764
v -0.098197 1.594003 0.003224
v 0.001123 1.511016 0.003837
v 0.043358 1.246624 0.004098
v 0.011405 1.035765 0.003901
v 0.306871 0.432190 -0.002395
v 0.378022 0.345800 0.006166
v -0.009706 -0.019183 0.508429
v -0.563592 0.219261 0.000348
v 0.053663 -0.123224 0.383469
v -0.480178 0.023176 0.000863
v -0.295195 -0.036019 0.336833
v 0.284995 0.102985 0.005592
v 0.071400 -0.025321 0.368708
v -0.432707 -0.137484 0.330967
v 0.022760 -0.135149 0.522606
v -0.122543 1.205467 0.398938
v -0.107983 0.997419 0.378798
v -0.169892 1.537794 0.359593
v -0.008886 0.351695 0.548073
v -0.120739 1.115039 0.415220
v -0.256945 0.307470 0.340616
v -0.292045 0.913607 0.289700
v -0.314026 1.064984 0.325628
v -0.332573 1.191514 0.312014
v -0.331402 1.511993 0.308420
v -0.325089 1.583439 0.183886
v -0.172815 1.598956 0.222482
v -0.199372 1.856305 0.988273
v -0.361004 1.825122 0.956833
v -0.353505 1.779959 0.640346
v -0.201376 1.834943 0.702264
v -0.338797 1.694199 0.331198
v -0.186678 1.727158 0.394711
v -0.183900 1.592491 0.555492
v -0.345356 1.544266 0.495598
v 0.280323 0.425022 0.060562
v 0.349946 0.348998 0.064612
v -0.541172 0.789701 0.000486
v -0.090193 0.881494 0.409187
v -0.285440 0.784122 0.249758
v -0.490495 0.658193 0.149671
v -0.622729 0.508435 0.109433
v -0.474389 0.416572 0.237153
v -0.267078 0.559321 0.356973
v -0.152262 0.668981 0.409725
v -0.633635 0.411157 0.152283
v -0.375932 0.648292 0.305675
v -0.003469 -0.019183 -0.500849
v 0.058351 -0.123224 -0.375116
v -0.291057 -0.036019 -0.332795
v 0.075903 -0.025321 -0.360136
v -0.428631 -0.137484 -0.328628
v 0.029170 -0.135149 -0.514625
v -0.117651 1.205467 -0.392761
v -0.103341 0.997419 -0.372443
v -0.165482 1.537794 -0.354005
v -0.002159 0.351695 -0.540480
v -0.115645 1.115039 -0.409020
v -0.252763 0.307470 -0.336105
v -0.288489 0.913607 -0.285626
v -0.310025 1.064984 -0.321823
v -0.328739 1.191514 -0.308440
v -0.327612 1.511993 -0.304832
v -0.322838 1.583439 -0.180229
v -0.170100 1.598956 -0.216941
v -0.187191 1.856305 -0.983001
v -0.349199 1.825122 -0.953561
v -0.345611 1.779959 -0.637005
v -0.192729 1.834943 -0.697038
v -0.334725 1.694199 -0.327700
v -0.181833 1.727158 -0.389328
v -0.177068 1.592491 -0.550062
v -0.339252 1.544266 -0.492168
v 0.311001 0.429138 -0.058955
v 0.372909 0.355438 -0.054751
v -0.085176 0.881494 -0.402610
v -0.282379 0.784122 -0.245606
v -0.488655 0.658193 -0.148061
v -0.621376 0.508435 -0.109460
v -0.471469 0.416572 -0.235337
v -0.262693 0.559321 -0.352585
v -0.147234 0.668981 -0.403915
v -0.631751 0.411157 -0.152441
v -0.372173 0.648292 -0.302637
v -0.121832 1.169856 0.405350
v -0.325269 1.141686 0.317375
v -0.116861 1.169856 -0.399164
v -0.321370 1.141686 -0.313710
v 0.800470 1.411380 0.000655
v 0.845732 1.025115 0.009057
v 0.773922 1.404212 0.063612
v 0.817656 1.028313 0.067502
v 0.804600 1.408328 -0.055905
v 0.840619 1.034753 -0.051861
v 0.420725 0.372423 0.006430
v 0.392650 0.375621 0.064876
v 0.379197 0.499996 -0.001948
v 0.383327 0.496944 -0.058508
v 0.352649 0.492828 0.061009
v 0.415612 0.382062 -0.054487
v 0.467700 0.538029 0.006721
v 0.360526 0.637040 -0.002064
v 0.333979 0.629872 0.060894
v 0.439624 0.541227 0.065166
v 0.364656 0.633989 -0.058624
v 0.462587 0.547668 -0.054197
v 0.583192 0.589169 0.007434
v 0.427912 0.685268 -0.001647
v 0.401364 0.678100 0.061310
v 0.555116 0.592367 0.065880
v 0.432042 0.682217 -0.058207
v 0.578079 0.598808 -0.053483
v 0.536242 0.864619 0.007144
v 0.238660 1.091365 -0.002817
v 0.212112 1.084197 0.060141
v 0.508167 0.867817 0.065590
v 0.242790 1.088314 -0.059377
v 0.531129 0.874258 -0.053774
vn -0.6695 0.0335 0.7420
vn -0.6080 -0.0887 0.7890
vn -0.4772 0.7603 0.4408
vn -0.5838 -0.4606 0.6685
vn -0.7152 -0.1535 0.6818
vn -0.8053 -0.0710 0.5885
vn -0.5777 -0.0180 0.8161
vn -0.5175 -0.0846 0.8515
vn -0.3260 -0.2846 0.9015
vn -0.3957 0.0888 0.9141
vn -0.3516 0.0367 0.9354
vn -0.0260 0.9604 0.2774
vn 0.8342 -0.1708 0.5243
vn 0.8253 0.3531 0.4406
vn 0.9400 -0.0524 0.3372
vn 0.8991 0.1620 0.4067
vn 0.6338 0.7398 0.2259
vn -0.4321 0.2420 0.8687
vn 0.0375 -0.9963 -0.0770
vn 0.9211 0.1138 0.3723
vn 0.0853 -0.9632 -0.2549
vn 0.1013 -0.1229 -0.9872
vn -0.2330 0.9664 -0.1088
vn -0.1475 0.9417 -0.3026
vn 0.0620 -0.8514 0.5209
vn -0.9994 -0.0146 -0.0324
vn 0.9977 0.0679 0.0066
vn 0.9960 0.0818 0.0347
vn -0.9971 -0.0319 -0.0688
vn 0.1420 -0.9630 0.2290
vn 0.0714 0.8017 -0.5934
vn -0.6532 0.1001 0.7506
vn -0.7263 0.0551 0.6851
vn -0.4269 0.0885 0.9000
vn -0.6591 0.6164 0.4307
vn -0.6765 0.4796 0.5589
vn -0.4673 -0.0622 0.8819
vn -0.6603 0.0335 -0.7503
vn -0.5982 -0.0887 -0.7964
vn -0.4717 0.7603 -0.4466
vn -0.5755 -0.4606 -0.6757
vn -0.7067 -0.1535 -0.6906
vn -0.7980 -0.0710 -0.5984
vn -0.5676 -0.0180 -0.8231
vn -0.5069 -0.0846 -0.8578
vn -0.3148 -0.2846 -0.9055
vn -0.3844 0.0888 -0.9189
vn -0.3400 0.0367 -0.9397
vn -0.0226 0.9604 -0.2777
vn 0.8357 -0.1990 -0.5119
vn 0.8200 0.3680 -0.4384
vn 0.9441 -0.0524 -0.3256
vn 0.9041 0.1620 -0.3955
vn 0.6366 0.7398 -0.2181
vn -0.4214 0.2420 -0.8740
vn 0.0366 -0.9963 0.0775
vn 0.9256 0.1138 -0.3609
vn 0.0821 -0.9632 0.2559
vn 0.0890 -0.1229 0.9884
vn -0.2343 0.9664 0.1059
vn -0.1512 0.9417 0.3007
vn 0.0684 -0.8514 -0.5201
vn -0.9997 -0.0146 0.0201
vn 0.9977 0.0679 0.0058
vn 0.9964 0.0818 -0.0224
vn -0.9979 -0.0319 0.0565
vn 0.1448 -0.9630 -0.2272
vn 0.0640 0.8017 0.5942
vn -0.6438 0.1001 -0.7586
vn -0.7178 0.0551 -0.6941
vn -0.4157 0.0885 -0.9052
vn -0.6538 0.6164 -0.4388
vn -0.6695 0.4796 -0.5672
vn -0.4564 -0.0622 -0.8876
vn -0.4098 0.0850 -0.9082
vn -0.5868 0.3005 -0.7519
vn -0.4210 0.0850 0.9031
vn -0.5961 0.3005 0.7446
vn 0.4433 -0.8579 0.2599
vn -0.4929 0.8662 -0.0827
vn -0.4915 0.8640 -0.1089
vn -0.0113 0.0093 0.9999
vn 0.0117 -0.0100 -0.9999
vn 0.4540 -0.8734 -0.1763
vn 0.5216 -0.8349 -0.1759
vn 0.0298 -0.0287 -0.9991
vn -0.0271 0.0255 0.9993
vn -0.6694 0.7153 -0.2008
vn -0.6809 0.7269 -0.0889
vn 0.5055 -0.8136 0.2873
vn 0.9548 -0.2706 -0.1230
vn 0.0574 -0.0048 -0.9983
vn -0.0500 0.0041 0.9987
vn -0.9092 -0.1242 -0.3975
vn -0.9887 -0.1348 -0.0649
vn 0.8681 -0.2470 0.4305
vn 0.3995 -0.8997 -0.1759
vn 0.0199 -0.0253 -0.9995
vn -0.0186 0.0229 0.9996
vn -0.5747 0.8043 -0.1508
vn -0.5795 0.8104 -0.0860
vn 0.3921 -0.8889 0.2370
vn 0.9842 0.1677 -0.0561
vn 0.0292 0.0080 -0.9995
vn -0.0271 -0.0073 0.9996
vn -0.8322 -0.3890 -0.3952
vn -0.9055 -0.4221 -0.0434
vn 0.8940 0.1528 0.4211
vn 0.9048 0.1123 0.4108
vn 0.9943 0.1063 -0.0024
usemtl Material.001
s off
f 2//1 32//1 33//1 1//1
f 4//2 3//2 31//2 94//2
f 6//3 1//3 33//3 34//3 7//3
f 5//4 30//4 31//4 3//4
f 46//5 48//5 30//5 5//5
f 18//6 19//6 29//6 16//6
f 15//7 27//7 29//7 19//7
f 47//8 25//8 30//8 48//8
f 30//9 25//9 28//9 31//9
f 93//10 24//10 32//10 94//10
f 24//11 26//11 33//11 32//11
f 8//12 7//12 34//12 35//12
f 20//13 14//13 45//13 27//13 15//13 21//13
f 12//14 25//14 47//14 27//14 45//14 44//14 13//14
f 11//15 24//15 93//15 28//15 25//15 12//15
f 10//16 26//16 24//16 11//16
f 9//17 8//17 35//17 26//17 10//17
f 23//18 15//18 19//18 22//18
f 22//19 17//19 23//19
f 23//20 17//20 21//20 15//20
f 21//21 19//21 18//21 20//21
f 22//22 19//22 21//22 17//22
f 39//23 38//23 37//23 36//23
f 41//24 40//24 38//24 39//24
f 43//25 42//25 36//25 37//25
f 40//26 43//26 37//26 38//26
f 42//27 41//27 39//27 36//27
f 26//28 35//28 41//28 42//28
f 34//29 33//29 43//29 40//29
f 33//30 26//30 42//30 43//30
f 35//31 34//31 40//31 41//31
f 27//32 47//32 48//32 29//32
f 16//33 29//33 48//33 46//33
f 47//34 55//34 52//34 53//34
f 55//35 47//35 48//35
f 48//36 49//36 50//36 54//36 55//36
f 54//37 51//37 52//37 55//37
f 2//38 1//38 71//38 70//38
f 4//39 96//39 69//39 3//39
f 6//40 7//40 72//40 71//40 1//40
f 5//41 3//41 69//41 68//41
f 46//42 5//42 68//42 85//42
f 18//43 16//43 67//43 58//43
f 56//44 58//44 67//44 65//44
f 84//45 85//45 68//45 63//45
f 68//46 69//46 66//46 63//46
f 95//47 96//47 70//47 62//47
f 62//48 70//48 71//48 64//48
f 8//49 73//49 72//49 7//49
f 20//50 59//50 56//50 65//50 83//50 14//50
f 12//51 13//51 82//51 83//51 65//51 84//51 63//51
f 11//52 12//52 63//52 66//52 95//52 62//52
f 10//53 11//53 62//53 64//53
f 9//54 10//54 64//54 73//54 8//54
f 61//55 60//55 58//55 56//55
f 60//56 61//56 57//56
f 61//57 56//57 59//57 57//57
f 59//58 20//58 18//58 58//58
f 60//59 57//59 59//59 58//59
f 77//60 74//60 75//60 76//60
f 79//61 77//61 76//61 78//61
f 81//62 75//62 74//62 80//62
f 78//63 76//63 75//63 81//63
f 80//64 74//64 77//64 79//64
f 64//65 80//65 79//65 73//65
f 72//66 78//66 81//66 71//66
f 71//67 81//67 80//67 64//67
f 73//68 79//68 78//68 72//68
f 65//69 67//69 85//69 84//69
f 16//70 46//70 85//70 67//70
f 84//71 90//71 89//71 92//71
f 92//72 85//72 84//72
f 85//73 92//73 91//73 87//73 86//73
f 91//74 92//74 89//74 88//74
f 66//75 69//75 96//75 95//75
f 2//76 70//76 96//76 4//76
f 28//77 93//77 94//77 31//77
f 2//78 4//78 94//78 32//78
f 124//79 121//79 98//79 100//79
f 125//80 122//80 97//80 101//80
f 122//81 123//81 99//81 97//81
f 123//82 124//82 100//82 99//82
f 126//83 125//83 101//83 102//83
f 121//84 126//84 102//84 98//84
f 14//85 83//85 108//85 103//85
f 83//86 82//86 106//86 108//86
f 44//87 45//87 104//87 107//87
f 13//88 44//88 107//88 105//88
f 82//89 13//89 105//89 106//89
f 45//90 14//90 103//90 104//90
f 103//91 108//91 114//91 109//91
f 108//92 106//92 113//92 114//92
f 107//93 104//93 112//93 111//93
f 105//94 107//94 111//94 110//94
f 106//95 105//95 110//95 113//95
f 104//96 103//96 109//96 112//96
f 109//97 114//97 120//97 115//97
f 114//98 113//98 119//98 120//98
f 111//99 112//99 118//99 117//99
f 110//100 111//100 117//100 116//100
f 113//101 110//101 116//101 119//101
f 112//102 109//102 115//102 118//102
f 115//103 120//103 126//103 121//103
f 120//104 119//104 125//104 126//104
f 117//105 118//105 124//105 123//105
f 116//106 117//106 123//106 122//106
f 119//107 116//107 122//107 125//107
f 118//108 115//108 121//108 124//108
f 99//109 100//109 98//109 97//109
f 98//110 102//110 101//110 97//110
